<svg width="22" height="18" viewBox="0 0 22 18" fill="none" xmlns="http://www.w3.org/2000/svg">
<path d="M13.6667 4.10938C13.176 4.10938 12.7778 3.71115 12.7778 3.22049V1.88715H9.22226V3.22049C9.22226 3.71115 8.82404 4.10938 8.33337 4.10938C7.84271 4.10938 7.44448 3.71115 7.44448 3.22049V1.88715C7.44448 0.906708 8.24182 0.109375 9.22226 0.109375H12.7778C13.7583 0.109375 14.5556 0.906708 14.5556 1.88715V3.22049C14.5556 3.71115 14.1574 4.10938 13.6667 4.10938Z" fill="#E0E0E0"/>
<path d="M11.6312 12.0027C11.4712 12.0649 11.24 12.1094 11 12.1094C10.76 12.1094 10.5289 12.0649 10.3156 11.9849L0.333374 8.66049V15.4427C0.333374 16.7938 1.42671 17.8872 2.77782 17.8872H19.2223C20.5734 17.8872 21.6667 16.7938 21.6667 15.4427V8.66049L11.6312 12.0027Z" fill="#E0E0E0"/>
<path d="M21.6667 5.22049V7.25604L11.2134 10.7405C11.1423 10.7672 11.0712 10.776 11 10.776C10.9289 10.776 10.8578 10.7672 10.7867 10.7405L0.333374 7.25604V5.22049C0.333374 3.86938 1.42671 2.77604 2.77782 2.77604H19.2223C20.5734 2.77604 21.6667 3.86938 21.6667 5.22049Z" fill="#E0E0E0"/>
</svg>
