<svg width="22" height="22" viewBox="0 0 22 22" fill="none" xmlns="http://www.w3.org/2000/svg">
<path d="M21.1118 18.4706L2.97322 0.332031H2.20943L2.05347 0.728323C1.64185 1.77432 1.46597 2.84416 1.54493 3.82203C1.63493 4.9367 2.05839 5.90174 2.7696 6.61295L10.3992 14.2425L11.4055 13.2362L18.4591 21.1234C19.1607 21.8251 20.3684 21.8667 21.1118 21.1234C21.8432 20.392 21.8432 19.202 21.1118 18.4706Z" fill="#E0E0E0"/>
<path d="M6.86368 12.4754L0.888222 18.4509C0.156888 19.1822 0.156888 20.3723 0.888222 21.1036C1.58297 21.7984 2.78485 21.8597 3.54093 21.1036L9.51643 15.1281L6.86368 12.4754Z" fill="#E0E0E0"/>
<path d="M20.7606 3.88407L17.3709 7.27365L16.4866 6.3894L19.8763 2.99978L18.992 2.11553L15.6024 5.50511L14.7182 4.62086L18.1078 1.23128L17.2236 0.347073L12.8023 4.76832C12.2615 5.3092 11.9385 6.02736 11.8928 6.79061C11.8813 6.98399 11.8375 7.1742 11.7648 7.35511L14.6368 10.2272C14.8177 10.1544 15.008 10.1106 15.2013 10.099C15.9646 10.0535 16.6827 9.73044 17.2236 9.18957L21.6448 4.76836L20.7606 3.88407Z" fill="#E0E0E0"/>
</svg>
