<svg width="22" height="22" viewBox="0 0 22 22" fill="none" xmlns="http://www.w3.org/2000/svg">
<path d="M0.458496 21.6654L12.9403 17.4978C9.37815 17.4978 5.27067 17.4978 1.84534 17.4978L0.458496 21.6654Z" fill="#E0E0E0"/>
<path d="M11.9589 10.8652C11.8814 10.8652 4.13404 10.8652 4.05254 10.8652L3.42825 12.7412H13.8317L11.9589 10.8652Z" fill="#E0E0E0"/>
<path d="M3.01208 13.9919L2.26156 16.2472H16.686L17.1703 16.0855L15.0802 13.9919C13.6437 13.9919 4.49639 13.9919 3.01208 13.9919Z" fill="#E0E0E0"/>
<path d="M6.02911 4.92555L4.46871 9.61462H10.7103L6.02911 4.92555Z" fill="#E0E0E0"/>
<path d="M19.1683 4.08399C20.2032 4.08399 21.0422 3.24408 21.0422 2.20801C21.0422 1.17194 20.2032 0.332031 19.1683 0.332031C18.1334 0.332031 17.2944 1.17194 17.2944 2.20801C17.2944 3.24408 18.1334 4.08399 19.1683 4.08399Z" fill="#E0E0E0"/>
<path d="M16.8828 4.91776H18.1313V6.16841H16.8828V4.91776Z" fill="#E0E0E0"/>
<path d="M14.7983 2.37476H16.0469V3.62542H14.7983V2.37476Z" fill="#E0E0E0"/>
<path d="M14.5889 6.79373H15.8374V8.04439H14.5889V6.79373Z" fill="#E0E0E0"/>
<path d="M9.43618 6.56812C10.2119 7.28349 11.2833 7.34352 12.4411 6.74925C12.2256 7.36437 11.6634 8.01825 11.2218 8.35684L12.1107 9.24718C12.2122 9.16305 12.3137 9.07113 12.4145 8.97037C13.9577 7.42707 13.8869 6.07369 13.7073 5.4043C13.7055 5.39742 13.7036 5.39046 13.7017 5.38362C14.3011 3.90819 13.7376 2.07457 12.5621 0.899077L12.0128 0.34879L11.1277 1.23242L11.6774 1.78304C12.2413 2.34687 12.6195 3.11361 12.6822 3.87846C11.6564 3.06942 10.2198 2.98521 9.36201 3.84453C8.65168 4.55594 8.63272 5.70146 9.30465 6.43642L9.43618 6.56812ZM10.2471 4.72807C10.4376 4.53722 10.6815 4.48499 10.8914 4.48499C11.3999 4.48499 11.9916 4.78615 12.3169 5.31029C12.2831 5.35519 12.247 5.39838 12.2087 5.43969C11.6139 5.82485 10.7957 6.1627 10.2471 5.61316C10.0035 5.36916 10.0034 4.97216 10.2471 4.72807Z" fill="#E0E0E0"/>
<path d="M18.758 8.96462C19.1326 8.659 19.6505 8.37977 20.2922 8.37977L21.5415 8.37789L21.5396 7.12724L20.2913 7.12912C19.0587 7.12912 17.9922 7.78067 17.2402 8.74012C16.4658 8.82 15.4958 9.1987 14.4377 10.2568C14.1997 10.4949 14.0001 10.7352 13.832 10.9713L14.7319 11.8728C15.1427 11.2277 15.8157 10.6248 16.4115 10.3016C16.2019 10.9628 16.1477 11.6418 16.2724 12.2571C16.5641 13.6959 17.5364 14.2989 18.4244 14.2988C19.6678 14.2988 20.7835 13.1372 20.5524 11.364C20.4137 10.2987 19.7193 9.38013 18.758 8.96462ZM18.5363 13.039C18.049 13.12 17.6415 12.7156 17.4981 12.0085C17.3751 11.4016 17.5297 10.6627 17.8982 10.0026C18.6571 10.1426 19.2148 10.7772 19.3123 11.5256C19.4336 12.4566 18.9951 12.9627 18.5363 13.039Z" fill="#E0E0E0"/>
</svg>
