<svg width="22" height="22" viewBox="0 0 22 22" fill="none" xmlns="http://www.w3.org/2000/svg">
<path d="M21.0914 9.611C21.0909 9.61051 21.0904 9.61003 21.0899 9.60954L12.3876 0.907552C12.0167 0.536458 11.5235 0.332031 10.999 0.332031C10.4744 0.332031 9.98122 0.536296 9.61013 0.907389L0.912376 9.60498C0.909446 9.60791 0.906516 9.611 0.903586 9.61393C0.141868 10.38 0.14317 11.623 0.90733 12.3872C1.25645 12.7365 1.71755 12.9388 2.21055 12.96C2.23057 12.9619 2.25075 12.9629 2.2711 12.9629H2.61794V19.367C2.61794 20.6343 3.64903 21.6654 4.91661 21.6654H8.32123C8.66628 21.6654 8.94623 21.3856 8.94623 21.0404V16.0195C8.94623 15.4412 9.41661 14.9709 9.9949 14.9709H12.003C12.5813 14.9709 13.0517 15.4412 13.0517 16.0195V21.0404C13.0517 21.3856 13.3315 21.6654 13.6767 21.6654H17.0813C18.3489 21.6654 19.38 20.6343 19.38 19.367V12.9629H19.7016C20.226 12.9629 20.7192 12.7586 21.0904 12.3875C21.8554 11.6221 21.8557 10.377 21.0914 9.611Z" fill="#E0E0E0"/>
</svg>
