<svg width="16" height="22" viewBox="0 0 16 22" fill="none" xmlns="http://www.w3.org/2000/svg">
<path d="M13.3393 0.332031C13.3393 0.332031 11.5841 2.03493 9.68577 2.72149C-4.37159 7.80609 1.557 17.7146 1.75041 17.7472C1.75041 17.7472 2.53868 16.3745 3.60351 15.5915C10.3605 10.6242 11.7338 4.90647 11.7338 4.90647C11.7338 4.90647 10.2176 11.7867 4.20622 16.0677C2.87853 17.0128 1.97953 19.3397 1.59898 21.6654C1.59898 21.6654 2.54011 21.2851 2.94481 21.1821C3.10262 20.1523 3.43257 19.1661 3.99041 18.2852C12.392 19.2855 15.1436 12.5156 15.5031 10.155C16.3515 4.57981 13.3393 0.332031 13.3393 0.332031Z" fill="#E0E0E0"/>
</svg>
