<svg width="20" height="22" viewBox="0 0 20 22" fill="none" xmlns="http://www.w3.org/2000/svg">
<path d="M9.83301 21.6654H8.16634C7.33922 21.6654 6.66634 20.9925 6.66634 20.1654V9.83203C6.66634 9.00491 7.33922 8.33203 8.16634 8.33203H9.83301C10.6601 8.33203 11.333 9.00491 11.333 9.83203V20.1654C11.333 20.9925 10.6601 21.6654 9.83301 21.6654Z" fill="#E0E0E0"/>
<path d="M3.49967 21.6654H1.83301C1.00588 21.6654 0.333008 20.9925 0.333008 20.1654V13.1654C0.333008 12.3382 1.00588 11.6654 1.83301 11.6654H3.49967C4.3268 11.6654 4.99967 12.3382 4.99967 13.1654V20.1654C4.99967 20.9925 4.32676 21.6654 3.49967 21.6654Z" fill="#E0E0E0"/>
<path d="M16.1663 21.6654H14.4997C13.6726 21.6654 12.9997 20.9925 12.9997 20.1654V6.33203H12.0838C11.6557 6.33203 11.2785 6.09036 11.0996 5.70136C10.9207 5.31236 10.9826 4.86878 11.2613 4.54366C11.2645 4.53995 11.2677 4.53624 11.271 4.53261L14.8365 0.553781C14.963 0.412656 15.1435 0.332031 15.333 0.332031C15.5225 0.332031 15.703 0.412656 15.8295 0.553781L19.395 4.53261C19.3983 4.53624 19.4016 4.53995 19.4047 4.54366C19.6834 4.86874 19.7453 5.31236 19.5664 5.70136C19.3875 6.09036 19.0103 6.33203 18.5822 6.33203H17.6663V20.1654C17.6663 20.9925 16.9934 21.6654 16.1663 21.6654Z" fill="#E0E0E0"/>
</svg>
